<svg id="visual" viewBox="0 0 900 600" width="900" height="600" xmlns="http://www.w3.org/2000/svg" xmlns:xlink="http://www.w3.org/1999/xlink" version="1.1"><g stroke-width="1" stroke-linejoin="bevel"><path d="M467 296L477 335.9L527 317.9Z" fill="#19435d" stroke="#19435d"></path><path d="M415 355.9L473 349.7L477 335.9Z" fill="#19435d" stroke="#19435d"></path><path d="M477 335.9L473 349.7L527 317.9Z" fill="#246688" stroke="#246688"></path><path d="M527 317.9L526 271L467 296Z" fill="#246688" stroke="#246688"></path><path d="M526 271L478 251.3L467 296Z" fill="#297ea6" stroke="#297ea6"></path><path d="M553 382.7L558 336L527 317.9Z" fill="#297ea6" stroke="#297ea6"></path><path d="M527 317.9L553 274L526 271Z" fill="#112e42" stroke="#112e42"></path><path d="M583 305.9L553 274L527 317.9Z" fill="#081a28" stroke="#081a28"></path><path d="M526 271L503 223.1L478 251.3Z" fill="#15384f" stroke="#15384f"></path><path d="M553 274L534 240.1L526 271Z" fill="#081a28" stroke="#081a28"></path><path d="M534 240.1L503 223.1L526 271Z" fill="#0c2435" stroke="#0c2435"></path><path d="M558 336L583 305.9L527 317.9Z" fill="#297ea6" stroke="#297ea6"></path><path d="M553 274L549 230.3L534 240.1Z" fill="#205a7a" stroke="#205a7a"></path><path d="M425 373.7L461 392.6L473 349.7Z" fill="#297ea6" stroke="#297ea6"></path><path d="M473 349.7L553 382.7L527 317.9Z" fill="#205a7a" stroke="#205a7a"></path><path d="M495 421.7L553 382.7L473 349.7Z" fill="#1d4e6b" stroke="#1d4e6b"></path><path d="M558 336L606 310.9L583 305.9Z" fill="#1d4e6b" stroke="#1d4e6b"></path><path d="M366 297L415 355.9L467 296Z" fill="#205a7a" stroke="#205a7a"></path><path d="M467 296L415 355.9L477 335.9Z" fill="#1d4e6b" stroke="#1d4e6b"></path><path d="M503 223.1L453 226.1L478 251.3Z" fill="#297ea6" stroke="#297ea6"></path><path d="M478 251.3L453 226.1L467 296Z" fill="#081a28" stroke="#081a28"></path><path d="M415 355.9L425 373.7L473 349.7Z" fill="#297ea6" stroke="#297ea6"></path><path d="M608 244.1L549 230.3L553 274Z" fill="#0c2435" stroke="#0c2435"></path><path d="M534 240.1L549 230.3L503 223.1Z" fill="#277297" stroke="#277297"></path><path d="M553 382.7L570 377.9L558 336Z" fill="#277297" stroke="#277297"></path><path d="M531 427.6L567 381.7L553 382.7Z" fill="#246688" stroke="#246688"></path><path d="M553 382.7L567 381.7L570 377.9Z" fill="#19435d" stroke="#19435d"></path><path d="M425 373.7L456 403.6L461 392.6Z" fill="#0c2435" stroke="#0c2435"></path><path d="M461 392.6L495 421.7L473 349.7Z" fill="#246688" stroke="#246688"></path><path d="M570 377.9L606 310.9L558 336Z" fill="#205a7a" stroke="#205a7a"></path><path d="M583 305.9L613 254.1L553 274Z" fill="#246688" stroke="#246688"></path><path d="M456 403.6L495 421.7L461 392.6Z" fill="#112e42" stroke="#112e42"></path><path d="M505 188.4L495 189.3L503 223.1Z" fill="#0c2435" stroke="#0c2435"></path><path d="M503 223.1L495 189.3L453 226.1Z" fill="#112e42" stroke="#112e42"></path><path d="M549 230.3L505 188.4L503 223.1Z" fill="#19435d" stroke="#19435d"></path><path d="M411 198.4L397 238.1L453 226.1Z" fill="#19435d" stroke="#19435d"></path><path d="M453 226.1L397 238.1L467 296Z" fill="#081a28" stroke="#081a28"></path><path d="M495 421.7L531 427.6L553 382.7Z" fill="#112e42" stroke="#112e42"></path><path d="M669 290L624 296L685 308.9Z" fill="#205a7a" stroke="#205a7a"></path><path d="M606 310.9L624 296L583 305.9Z" fill="#277297" stroke="#277297"></path><path d="M549 230.3L583 187.4L505 188.4Z" fill="#112e42" stroke="#112e42"></path><path d="M624 296L613 254.1L583 305.9Z" fill="#205a7a" stroke="#205a7a"></path><path d="M613 254.1L608 244.1L553 274Z" fill="#277297" stroke="#277297"></path><path d="M397 238.1L366 297L467 296Z" fill="#205a7a" stroke="#205a7a"></path><path d="M415 355.9L376 397.6L425 373.7Z" fill="#19435d" stroke="#19435d"></path><path d="M456 403.6L488 444.4L495 421.7Z" fill="#112e42" stroke="#112e42"></path><path d="M495 421.7L488 444.4L531 427.6Z" fill="#246688" stroke="#246688"></path><path d="M463 463.4L488 444.4L456 403.6Z" fill="#1d4e6b" stroke="#1d4e6b"></path><path d="M397 238.1L369 258.1L366 297Z" fill="#112e42" stroke="#112e42"></path><path d="M412 179.4L411 198.4L453 226.1Z" fill="#205a7a" stroke="#205a7a"></path><path d="M350 220.3L343 253.1L369 258.1Z" fill="#297ea6" stroke="#297ea6"></path><path d="M351 378.9L376 397.6L415 355.9Z" fill="#081a28" stroke="#081a28"></path><path d="M425 373.7L383 407.6L456 403.6Z" fill="#19435d" stroke="#19435d"></path><path d="M376 397.6L383 407.6L425 373.7Z" fill="#081a28" stroke="#081a28"></path><path d="M594 184.3L583 187.4L608 244.1Z" fill="#19435d" stroke="#19435d"></path><path d="M608 244.1L583 187.4L549 230.3Z" fill="#246688" stroke="#246688"></path><path d="M412 179.4L405 189.3L411 198.4Z" fill="#0c2435" stroke="#0c2435"></path><path d="M411 198.4L360 195.4L397 238.1Z" fill="#246688" stroke="#246688"></path><path d="M412 179.4L453 226.1L495 189.3Z" fill="#00101c" stroke="#00101c"></path><path d="M412 179.4L495 189.3L475 140.4Z" fill="#081a28" stroke="#081a28"></path><path d="M475 140.4L495 189.3L505 188.4Z" fill="#112e42" stroke="#112e42"></path><path d="M383 407.6L463 463.4L456 403.6Z" fill="#081a28" stroke="#081a28"></path><path d="M488 444.4L540 493.3L531 427.6Z" fill="#1d4e6b" stroke="#1d4e6b"></path><path d="M567 381.7L611 419.7L570 377.9Z" fill="#081a28" stroke="#081a28"></path><path d="M570 377.9L673 357.7L606 310.9Z" fill="#277297" stroke="#277297"></path><path d="M531 427.6L611 419.7L567 381.7Z" fill="#1d4e6b" stroke="#1d4e6b"></path><path d="M621 462.6L611 419.7L531 427.6Z" fill="#112e42" stroke="#112e42"></path><path d="M652 192.4L594 184.3L608 244.1Z" fill="#15384f" stroke="#15384f"></path><path d="M518 112.7L475 140.4L505 188.4Z" fill="#0c2435" stroke="#0c2435"></path><path d="M366 297L351 378.9L415 355.9Z" fill="#081a28" stroke="#081a28"></path><path d="M376 397.6L330 440.4L383 407.6Z" fill="#19435d" stroke="#19435d"></path><path d="M324 351.7L351 378.9L366 297Z" fill="#112e42" stroke="#112e42"></path><path d="M350 220.3L369 258.1L397 238.1Z" fill="#112e42" stroke="#112e42"></path><path d="M369 258.1L343 253.1L366 297Z" fill="#246688" stroke="#246688"></path><path d="M350 220.3L397 238.1L360 195.4Z" fill="#277297" stroke="#277297"></path><path d="M343 253.1L329 314L366 297Z" fill="#112e42" stroke="#112e42"></path><path d="M518 112.7L505 188.4L556 113.7Z" fill="#0c2435" stroke="#0c2435"></path><path d="M360 195.4L411 198.4L405 189.3Z" fill="#112e42" stroke="#112e42"></path><path d="M303 310L315 322.9L329 314Z" fill="#277297" stroke="#277297"></path><path d="M673 357.7L624 296L606 310.9Z" fill="#081a28" stroke="#081a28"></path><path d="M624 296L662 245.3L613 254.1Z" fill="#246688" stroke="#246688"></path><path d="M613 254.1L662 245.3L608 244.1Z" fill="#15384f" stroke="#15384f"></path><path d="M329 314L324 351.7L366 297Z" fill="#00101c" stroke="#00101c"></path><path d="M374 154.6L405 189.3L412 179.4Z" fill="#00101c" stroke="#00101c"></path><path d="M374 154.6L360 195.4L405 189.3Z" fill="#205a7a" stroke="#205a7a"></path><path d="M669 290L662 245.3L624 296Z" fill="#00101c" stroke="#00101c"></path><path d="M306 284L329 314L343 253.1Z" fill="#112e42" stroke="#112e42"></path><path d="M329 314L315 322.9L324 351.7Z" fill="#297ea6" stroke="#297ea6"></path><path d="M611 419.7L673 357.7L570 377.9Z" fill="#15384f" stroke="#15384f"></path><path d="M508 501.3L540 493.3L488 444.4Z" fill="#1d4e6b" stroke="#1d4e6b"></path><path d="M611 419.7L699 431.6L673 357.7Z" fill="#205a7a" stroke="#205a7a"></path><path d="M673 357.7L685 308.9L624 296Z" fill="#112e42" stroke="#112e42"></path><path d="M669 290L687 262.1L662 245.3Z" fill="#112e42" stroke="#112e42"></path><path d="M383 407.6L433 490.4L463 463.4Z" fill="#205a7a" stroke="#205a7a"></path><path d="M463 463.4L508 501.3L488 444.4Z" fill="#277297" stroke="#277297"></path><path d="M396 496.3L433 490.4L383 407.6Z" fill="#0c2435" stroke="#0c2435"></path><path d="M330 440.4L376 397.6L351 378.9Z" fill="#00101c" stroke="#00101c"></path><path d="M314 183.3L343 253.1L350 220.3Z" fill="#19435d" stroke="#19435d"></path><path d="M247 246.3L306 284L343 253.1Z" fill="#1d4e6b" stroke="#1d4e6b"></path><path d="M433 490.4L508 501.3L463 463.4Z" fill="#277297" stroke="#277297"></path><path d="M315 322.9L255 356.9L324 351.7Z" fill="#0c2435" stroke="#0c2435"></path><path d="M306 284L303 310L329 314Z" fill="#246688" stroke="#246688"></path><path d="M687 206.3L652 192.4L662 245.3Z" fill="#081a28" stroke="#081a28"></path><path d="M662 245.3L652 192.4L608 244.1Z" fill="#081a28" stroke="#081a28"></path><path d="M556 113.7L505 188.4L583 187.4Z" fill="#1d4e6b" stroke="#1d4e6b"></path><path d="M691 266L687 262.1L669 290Z" fill="#1d4e6b" stroke="#1d4e6b"></path><path d="M540 493.3L621 462.6L531 427.6Z" fill="#246688" stroke="#246688"></path><path d="M440 117.6L374 154.6L412 179.4Z" fill="#246688" stroke="#246688"></path><path d="M360 195.4L314 183.3L350 220.3Z" fill="#246688" stroke="#246688"></path><path d="M604 140.6L583 187.4L594 184.3Z" fill="#081a28" stroke="#081a28"></path><path d="M475 140.4L440 117.6L412 179.4Z" fill="#246688" stroke="#246688"></path><path d="M685 308.9L691 266L669 290Z" fill="#15384f" stroke="#15384f"></path><path d="M687 262.1L687 206.3L662 245.3Z" fill="#19435d" stroke="#19435d"></path><path d="M477 541.3L513 509.4L508 501.3Z" fill="#0c2435" stroke="#0c2435"></path><path d="M508 501.3L513 509.4L540 493.3Z" fill="#1d4e6b" stroke="#1d4e6b"></path><path d="M600 503.4L622 466.6L621 462.6Z" fill="#15384f" stroke="#15384f"></path><path d="M498 89.6L440 117.6L475 140.4Z" fill="#0c2435" stroke="#0c2435"></path><path d="M652 192.4L604 140.6L594 184.3Z" fill="#19435d" stroke="#19435d"></path><path d="M600 503.4L621 462.6L540 493.3Z" fill="#277297" stroke="#277297"></path><path d="M621 462.6L641 454.4L611 419.7Z" fill="#246688" stroke="#246688"></path><path d="M255 356.9L312 392.7L324 351.7Z" fill="#081a28" stroke="#081a28"></path><path d="M324 351.7L312 392.7L351 378.9Z" fill="#297ea6" stroke="#297ea6"></path><path d="M622 466.6L641 454.4L621 462.6Z" fill="#19435d" stroke="#19435d"></path><path d="M604 140.6L556 113.7L583 187.4Z" fill="#205a7a" stroke="#205a7a"></path><path d="M312 392.7L330 440.4L351 378.9Z" fill="#081a28" stroke="#081a28"></path><path d="M330 440.4L396 496.3L383 407.6Z" fill="#112e42" stroke="#112e42"></path><path d="M433 490.4L477 541.3L508 501.3Z" fill="#246688" stroke="#246688"></path><path d="M584 75.9L539 99.6L556 113.7Z" fill="#15384f" stroke="#15384f"></path><path d="M556 113.7L539 99.6L518 112.7Z" fill="#1d4e6b" stroke="#1d4e6b"></path><path d="M518 112.7L498 89.6L475 140.4Z" fill="#277297" stroke="#277297"></path><path d="M743 388.6L709 339.9L673 357.7Z" fill="#00101c" stroke="#00101c"></path><path d="M673 357.7L709 339.9L685 308.9Z" fill="#0c2435" stroke="#0c2435"></path><path d="M685 308.9L731 318L691 266Z" fill="#297ea6" stroke="#297ea6"></path><path d="M733 246.1L687 206.3L687 262.1Z" fill="#112e42" stroke="#112e42"></path><path d="M652 192.4L662 136.6L604 140.6Z" fill="#1d4e6b" stroke="#1d4e6b"></path><path d="M733 246.1L687 262.1L691 266Z" fill="#0c2435" stroke="#0c2435"></path><path d="M584 75.9L533 95.7L539 99.6Z" fill="#081a28" stroke="#081a28"></path><path d="M539 99.6L533 95.7L518 112.7Z" fill="#277297" stroke="#277297"></path><path d="M312 392.7L299 405.7L330 440.4Z" fill="#15384f" stroke="#15384f"></path><path d="M255 356.9L299 405.7L312 392.7Z" fill="#205a7a" stroke="#205a7a"></path><path d="M622 466.6L643 481.3L641 454.4Z" fill="#00101c" stroke="#00101c"></path><path d="M563 562.1L600 503.4L540 493.3Z" fill="#15384f" stroke="#15384f"></path><path d="M533 95.7L498 89.6L518 112.7Z" fill="#0c2435" stroke="#0c2435"></path><path d="M290 181.4L314 183.3L273 148.6Z" fill="#1d4e6b" stroke="#1d4e6b"></path><path d="M374 154.6L314 183.3L360 195.4Z" fill="#1d4e6b" stroke="#1d4e6b"></path><path d="M306 284L252 295.1L303 310Z" fill="#297ea6" stroke="#297ea6"></path><path d="M687 206.3L684 190.4L652 192.4Z" fill="#277297" stroke="#277297"></path><path d="M604 140.6L584 75.9L556 113.7Z" fill="#112e42" stroke="#112e42"></path><path d="M299 405.7L313 440.6L330 440.4Z" fill="#205a7a" stroke="#205a7a"></path><path d="M330 440.4L322 467.4L396 496.3Z" fill="#246688" stroke="#246688"></path><path d="M600 503.4L643 481.3L622 466.6Z" fill="#19435d" stroke="#19435d"></path><path d="M641 454.4L699 431.6L611 419.7Z" fill="#15384f" stroke="#15384f"></path><path d="M474 28.9L414 98.7L440 117.6Z" fill="#277297" stroke="#277297"></path><path d="M440 117.6L414 98.7L374 154.6Z" fill="#1d4e6b" stroke="#1d4e6b"></path><path d="M437 549.1L477 541.3L433 490.4Z" fill="#081a28" stroke="#081a28"></path><path d="M626 536.1L623 517.3L600 503.4Z" fill="#0c2435" stroke="#0c2435"></path><path d="M313 440.6L322 467.4L330 440.4Z" fill="#246688" stroke="#246688"></path><path d="M396 496.3L437 549.1L433 490.4Z" fill="#15384f" stroke="#15384f"></path><path d="M288 462.6L322 467.4L313 440.6Z" fill="#112e42" stroke="#112e42"></path><path d="M743 388.6L731 318L709 339.9Z" fill="#19435d" stroke="#19435d"></path><path d="M709 339.9L731 318L685 308.9Z" fill="#19435d" stroke="#19435d"></path><path d="M687 206.3L737 216.3L684 190.4Z" fill="#297ea6" stroke="#297ea6"></path><path d="M669 476.4L699 431.6L641 454.4Z" fill="#246688" stroke="#246688"></path><path d="M684 190.4L662 136.6L652 192.4Z" fill="#1d4e6b" stroke="#1d4e6b"></path><path d="M650 496.3L669 476.4L643 481.3Z" fill="#15384f" stroke="#15384f"></path><path d="M643 481.3L669 476.4L641 454.4Z" fill="#15384f" stroke="#15384f"></path><path d="M344 514.3L375 519.3L396 496.3Z" fill="#246688" stroke="#246688"></path><path d="M623 517.3L643 481.3L600 503.4Z" fill="#112e42" stroke="#112e42"></path><path d="M623 517.3L650 496.3L643 481.3Z" fill="#15384f" stroke="#15384f"></path><path d="M343 118.7L314 183.3L374 154.6Z" fill="#246688" stroke="#246688"></path><path d="M314 183.3L281 185.3L343 253.1Z" fill="#205a7a" stroke="#205a7a"></path><path d="M303 310L255 356.9L315 322.9Z" fill="#1d4e6b" stroke="#1d4e6b"></path><path d="M626 536.1L600 503.4L563 562.1Z" fill="#205a7a" stroke="#205a7a"></path><path d="M247 246.3L252 295.1L306 284Z" fill="#081a28" stroke="#081a28"></path><path d="M299 405.7L288 462.6L313 440.6Z" fill="#15384f" stroke="#15384f"></path><path d="M382 92.6L343 118.7L374 154.6Z" fill="#00101c" stroke="#00101c"></path><path d="M414 98.7L382 92.6L374 154.6Z" fill="#112e42" stroke="#112e42"></path><path d="M399 60.7L382 92.6L414 98.7Z" fill="#19435d" stroke="#19435d"></path><path d="M252 295.1L255 356.9L303 310Z" fill="#277297" stroke="#277297"></path><path d="M731 318L733 246.1L691 266Z" fill="#297ea6" stroke="#297ea6"></path><path d="M684 190.4L712 157.4L662 136.6Z" fill="#15384f" stroke="#15384f"></path><path d="M390 545.1L437 549.1L396 496.3Z" fill="#00101c" stroke="#00101c"></path><path d="M563 562.1L540 493.3L513 509.4Z" fill="#15384f" stroke="#15384f"></path><path d="M273 148.6L281 185.3L290 181.4Z" fill="#081a28" stroke="#081a28"></path><path d="M290 181.4L281 185.3L314 183.3Z" fill="#00101c" stroke="#00101c"></path><path d="M437 549.1L466 558.1L477 541.3Z" fill="#297ea6" stroke="#297ea6"></path><path d="M676 77.7L584 75.9L604 140.6Z" fill="#205a7a" stroke="#205a7a"></path><path d="M508 14.9L474 28.9L498 89.6Z" fill="#205a7a" stroke="#205a7a"></path><path d="M474 28.9L399 60.7L414 98.7Z" fill="#19435d" stroke="#19435d"></path><path d="M772 271.1L740 242.3L733 246.1Z" fill="#00101c" stroke="#00101c"></path><path d="M733 246.1L737 216.3L687 206.3Z" fill="#112e42" stroke="#112e42"></path><path d="M322 467.4L344 514.3L396 496.3Z" fill="#277297" stroke="#277297"></path><path d="M375 519.3L390 545.1L396 496.3Z" fill="#15384f" stroke="#15384f"></path><path d="M312 549.1L344 514.3L296 546.1Z" fill="#246688" stroke="#246688"></path><path d="M281 185.3L247 246.3L343 253.1Z" fill="#112e42" stroke="#112e42"></path><path d="M252 295.1L225 319.9L255 356.9Z" fill="#15384f" stroke="#15384f"></path><path d="M626 536.1L646 519.1L623 517.3Z" fill="#277297" stroke="#277297"></path><path d="M623 517.3L646 519.1L650 496.3Z" fill="#205a7a" stroke="#205a7a"></path><path d="M650 496.3L699 495.3L669 476.4Z" fill="#19435d" stroke="#19435d"></path><path d="M731 436.4L736 403.7L699 431.6Z" fill="#19435d" stroke="#19435d"></path><path d="M731 436.4L699 431.6L699 495.3Z" fill="#205a7a" stroke="#205a7a"></path><path d="M699 431.6L736 403.7L673 357.7Z" fill="#297ea6" stroke="#297ea6"></path><path d="M731 318L772 271.1L733 246.1Z" fill="#112e42" stroke="#112e42"></path><path d="M248 414.6L288 462.6L299 405.7Z" fill="#00101c" stroke="#00101c"></path><path d="M354 537.1L390 545.1L375 519.3Z" fill="#205a7a" stroke="#205a7a"></path><path d="M475 600L489 600L466 558.1Z" fill="#19435d" stroke="#19435d"></path><path d="M740 242.3L737 216.3L733 246.1Z" fill="#19435d" stroke="#19435d"></path><path d="M736 403.7L743 388.6L673 357.7Z" fill="#277297" stroke="#277297"></path><path d="M563 562.1L513 509.4L477 541.3Z" fill="#246688" stroke="#246688"></path><path d="M489 600L563 562.1L477 541.3Z" fill="#0c2435" stroke="#0c2435"></path><path d="M247 246.3L235 285.1L252 295.1Z" fill="#19435d" stroke="#19435d"></path><path d="M737 216.3L712 157.4L684 190.4Z" fill="#246688" stroke="#246688"></path><path d="M662 136.6L676 77.7L604 140.6Z" fill="#112e42" stroke="#112e42"></path><path d="M699 495.3L699 431.6L669 476.4Z" fill="#19435d" stroke="#19435d"></path><path d="M736 403.7L756 386.7L743 388.6Z" fill="#246688" stroke="#246688"></path><path d="M474 28.9L440 117.6L498 89.6Z" fill="#081a28" stroke="#081a28"></path><path d="M328 78.7L302 118.6L343 118.7Z" fill="#19435d" stroke="#19435d"></path><path d="M312 549.1L354 537.1L344 514.3Z" fill="#246688" stroke="#246688"></path><path d="M344 514.3L354 537.1L375 519.3Z" fill="#246688" stroke="#246688"></path><path d="M737 216.3L715 154.6L712 157.4Z" fill="#1d4e6b" stroke="#1d4e6b"></path><path d="M712 157.4L705 130.6L662 136.6Z" fill="#19435d" stroke="#19435d"></path><path d="M255 356.9L248 414.6L299 405.7Z" fill="#246688" stroke="#246688"></path><path d="M208 421.7L248 414.6L255 356.9Z" fill="#277297" stroke="#277297"></path><path d="M235 285.1L225 319.9L252 295.1Z" fill="#19435d" stroke="#19435d"></path><path d="M771 447.6L756 386.7L736 403.7Z" fill="#1d4e6b" stroke="#1d4e6b"></path><path d="M743 388.6L756 386.7L731 318Z" fill="#205a7a" stroke="#205a7a"></path><path d="M328 78.7L343 118.7L382 92.6Z" fill="#19435d" stroke="#19435d"></path><path d="M343 118.7L302 118.6L314 183.3Z" fill="#1d4e6b" stroke="#1d4e6b"></path><path d="M281 185.3L201 206.4L247 246.3Z" fill="#0c2435" stroke="#0c2435"></path><path d="M700 520.1L650 496.3L646 519.1Z" fill="#246688" stroke="#246688"></path><path d="M700 520.1L699 495.3L650 496.3Z" fill="#205a7a" stroke="#205a7a"></path><path d="M302 118.6L273 148.6L314 183.3Z" fill="#112e42" stroke="#112e42"></path><path d="M198 296.1L219 319L235 285.1Z" fill="#15384f" stroke="#15384f"></path><path d="M235 285.1L219 319L225 319.9Z" fill="#15384f" stroke="#15384f"></path><path d="M715 154.6L705 130.6L712 157.4Z" fill="#0c2435" stroke="#0c2435"></path><path d="M211 260L235 285.1L247 246.3Z" fill="#00101c" stroke="#00101c"></path><path d="M225 319.9L219 319L255 356.9Z" fill="#205a7a" stroke="#205a7a"></path><path d="M804 314.9L772 271.1L731 318Z" fill="#081a28" stroke="#081a28"></path><path d="M740 242.3L783 201.4L737 216.3Z" fill="#246688" stroke="#246688"></path><path d="M737 216.3L783 201.4L715 154.6Z" fill="#081a28" stroke="#081a28"></path><path d="M715 154.6L742 109.7L705 130.6Z" fill="#205a7a" stroke="#205a7a"></path><path d="M508 14.9L498 89.6L533 95.7Z" fill="#15384f" stroke="#15384f"></path><path d="M578 600L579 581.1L563 562.1Z" fill="#15384f" stroke="#15384f"></path><path d="M563 562.1L579 581.1L626 536.1Z" fill="#297ea6" stroke="#297ea6"></path><path d="M662 600L700 520.1L646 519.1Z" fill="#081a28" stroke="#081a28"></path><path d="M489 600L477 541.3L466 558.1Z" fill="#19435d" stroke="#19435d"></path><path d="M399 60.7L328 78.7L382 92.6Z" fill="#1d4e6b" stroke="#1d4e6b"></path><path d="M302 118.6L262 144.4L273 148.6Z" fill="#297ea6" stroke="#297ea6"></path><path d="M322 75.9L320 0L299 42.9Z" fill="#1d4e6b" stroke="#1d4e6b"></path><path d="M282 79.7L262 144.4L302 118.6Z" fill="#00101c" stroke="#00101c"></path><path d="M273 148.6L262 144.4L281 185.3Z" fill="#205a7a" stroke="#205a7a"></path><path d="M208 421.7L240 439.4L248 414.6Z" fill="#112e42" stroke="#112e42"></path><path d="M248 414.6L240 439.4L288 462.6Z" fill="#297ea6" stroke="#297ea6"></path><path d="M296 546.1L344 514.3L322 467.4Z" fill="#1d4e6b" stroke="#1d4e6b"></path><path d="M731 436.4L771 447.6L736 403.7Z" fill="#277297" stroke="#277297"></path><path d="M806 289.1L788 267L772 271.1Z" fill="#277297" stroke="#277297"></path><path d="M699 495.3L748 451.4L731 436.4Z" fill="#1d4e6b" stroke="#1d4e6b"></path><path d="M201 206.4L211 260L247 246.3Z" fill="#112e42" stroke="#112e42"></path><path d="M475 600L437 549.1L366 600Z" fill="#277297" stroke="#277297"></path><path d="M475 600L466 558.1L437 549.1Z" fill="#205a7a" stroke="#205a7a"></path><path d="M366 600L437 549.1L390 545.1Z" fill="#246688" stroke="#246688"></path><path d="M394 12.9L328 78.7L399 60.7Z" fill="#112e42" stroke="#112e42"></path><path d="M328 78.7L322 75.9L302 118.6Z" fill="#15384f" stroke="#15384f"></path><path d="M662 600L646 519.1L626 536.1Z" fill="#246688" stroke="#246688"></path><path d="M745 518.1L758 452.6L748 451.4Z" fill="#0c2435" stroke="#0c2435"></path><path d="M705 130.6L676 77.7L662 136.6Z" fill="#00101c" stroke="#00101c"></path><path d="M584 75.9L508 14.9L533 95.7Z" fill="#00101c" stroke="#00101c"></path><path d="M794 342.9L731 318L756 386.7Z" fill="#246688" stroke="#246688"></path><path d="M772 271.1L788 267L740 242.3Z" fill="#277297" stroke="#277297"></path><path d="M705 130.6L742 109.7L676 77.7Z" fill="#1d4e6b" stroke="#1d4e6b"></path><path d="M505 0L508 14.9L589 0Z" fill="#081a28" stroke="#081a28"></path><path d="M474 28.9L409 0L399 60.7Z" fill="#246688" stroke="#246688"></path><path d="M211 260L198 296.1L235 285.1Z" fill="#00101c" stroke="#00101c"></path><path d="M219 319L189 328.9L255 356.9Z" fill="#1d4e6b" stroke="#1d4e6b"></path><path d="M745 518.1L748 451.4L699 495.3Z" fill="#00101c" stroke="#00101c"></path><path d="M748 451.4L771 447.6L731 436.4Z" fill="#112e42" stroke="#112e42"></path><path d="M829 383.7L794 342.9L756 386.7Z" fill="#1d4e6b" stroke="#1d4e6b"></path><path d="M676 77.7L667 62.7L584 75.9Z" fill="#205a7a" stroke="#205a7a"></path><path d="M489 600L578 600L563 562.1Z" fill="#0c2435" stroke="#0c2435"></path><path d="M579 581.1L617 600L626 536.1Z" fill="#19435d" stroke="#19435d"></path><path d="M296 546.1L322 467.4L288 462.6Z" fill="#297ea6" stroke="#297ea6"></path><path d="M354 537.1L366 600L390 545.1Z" fill="#19435d" stroke="#19435d"></path><path d="M505 0L485 4.9L508 14.9Z" fill="#277297" stroke="#277297"></path><path d="M508 14.9L485 4.9L474 28.9Z" fill="#277297" stroke="#277297"></path><path d="M831 222.3L783 201.4L788 267Z" fill="#15384f" stroke="#15384f"></path><path d="M788 267L783 201.4L740 242.3Z" fill="#246688" stroke="#246688"></path><path d="M676 77.7L694 45.7L667 62.7Z" fill="#205a7a" stroke="#205a7a"></path><path d="M198 296.1L189 328.9L219 319Z" fill="#1d4e6b" stroke="#1d4e6b"></path><path d="M745 518.1L771 447.6L758 452.6Z" fill="#205a7a" stroke="#205a7a"></path><path d="M758 452.6L771 447.6L748 451.4Z" fill="#112e42" stroke="#112e42"></path><path d="M863 362.7L804 314.9L794 342.9Z" fill="#205a7a" stroke="#205a7a"></path><path d="M794 342.9L804 314.9L731 318Z" fill="#15384f" stroke="#15384f"></path><path d="M299 42.9L290 79.9L322 75.9Z" fill="#081a28" stroke="#081a28"></path><path d="M322 75.9L290 79.9L302 118.6Z" fill="#1d4e6b" stroke="#1d4e6b"></path><path d="M216 161.6L201 206.4L281 185.3Z" fill="#297ea6" stroke="#297ea6"></path><path d="M193 413.7L208 421.7L255 356.9Z" fill="#00101c" stroke="#00101c"></path><path d="M255 507.3L296 546.1L288 462.6Z" fill="#205a7a" stroke="#205a7a"></path><path d="M255 507.3L288 462.6L240 439.4Z" fill="#15384f" stroke="#15384f"></path><path d="M339 600L366 600L354 537.1Z" fill="#00101c" stroke="#00101c"></path><path d="M589 0L508 14.9L584 75.9Z" fill="#277297" stroke="#277297"></path><path d="M804 314.9L806 289.1L772 271.1Z" fill="#19435d" stroke="#19435d"></path><path d="M505 0L466 0L485 4.9Z" fill="#112e42" stroke="#112e42"></path><path d="M485 4.9L466 0L474 28.9Z" fill="#246688" stroke="#246688"></path><path d="M237 510.4L255 507.3L240 439.4Z" fill="#081a28" stroke="#081a28"></path><path d="M466 0L456 0L474 28.9Z" fill="#19435d" stroke="#19435d"></path><path d="M216 161.6L281 185.3L262 144.4Z" fill="#277297" stroke="#277297"></path><path d="M211 260L170 292.1L198 296.1Z" fill="#205a7a" stroke="#205a7a"></path><path d="M198 296.1L170 292.1L189 328.9Z" fill="#0c2435" stroke="#0c2435"></path><path d="M409 0L394 12.9L399 60.7Z" fill="#277297" stroke="#277297"></path><path d="M299 42.9L282 79.7L290 79.9Z" fill="#19435d" stroke="#19435d"></path><path d="M290 79.9L282 79.7L302 118.6Z" fill="#205a7a" stroke="#205a7a"></path><path d="M578 600L617 600L579 581.1Z" fill="#19435d" stroke="#19435d"></path><path d="M235 122.7L216 161.6L262 144.4Z" fill="#15384f" stroke="#15384f"></path><path d="M804 138.4L742 109.7L715 154.6Z" fill="#1d4e6b" stroke="#1d4e6b"></path><path d="M339 600L354 537.1L312 549.1Z" fill="#205a7a" stroke="#205a7a"></path><path d="M171 372.9L193 413.7L255 356.9Z" fill="#1d4e6b" stroke="#1d4e6b"></path><path d="M202 491.4L237 510.4L240 439.4Z" fill="#1d4e6b" stroke="#1d4e6b"></path><path d="M282 79.7L235 122.7L262 144.4Z" fill="#277297" stroke="#277297"></path><path d="M456 0L409 0L474 28.9Z" fill="#15384f" stroke="#15384f"></path><path d="M320 0L322 75.9L328 78.7Z" fill="#112e42" stroke="#112e42"></path><path d="M659 21.9L584 75.9L667 62.7Z" fill="#112e42" stroke="#112e42"></path><path d="M659 21.9L589 0L584 75.9Z" fill="#19435d" stroke="#19435d"></path><path d="M739 543.3L745 518.1L700 520.1Z" fill="#297ea6" stroke="#297ea6"></path><path d="M700 520.1L745 518.1L699 495.3Z" fill="#297ea6" stroke="#297ea6"></path><path d="M854 240.1L818 262L873 304.9Z" fill="#15384f" stroke="#15384f"></path><path d="M806 289.1L818 262L788 267Z" fill="#081a28" stroke="#081a28"></path><path d="M783 201.4L804 138.4L715 154.6Z" fill="#297ea6" stroke="#297ea6"></path><path d="M818 262L806 289.1L873 304.9Z" fill="#277297" stroke="#277297"></path><path d="M163 199.3L211 260L201 206.4Z" fill="#205a7a" stroke="#205a7a"></path><path d="M129 243.3L170 292.1L211 260Z" fill="#1d4e6b" stroke="#1d4e6b"></path><path d="M189 328.9L171 372.9L255 356.9Z" fill="#081a28" stroke="#081a28"></path><path d="M202 491.4L240 439.4L208 421.7Z" fill="#205a7a" stroke="#205a7a"></path><path d="M255 507.3L244 527.3L296 546.1Z" fill="#19435d" stroke="#19435d"></path><path d="M289 600L339 600L312 549.1Z" fill="#277297" stroke="#277297"></path><path d="M617 600L649 600L626 536.1Z" fill="#0c2435" stroke="#0c2435"></path><path d="M289 600L312 549.1L296 546.1Z" fill="#112e42" stroke="#112e42"></path><path d="M710 39.9L694 45.7L676 77.7Z" fill="#19435d" stroke="#19435d"></path><path d="M159 366.7L171 372.9L189 328.9Z" fill="#112e42" stroke="#112e42"></path><path d="M161 438.6L202 491.4L208 421.7Z" fill="#1d4e6b" stroke="#1d4e6b"></path><path d="M694 45.7L659 21.9L667 62.7Z" fill="#081a28" stroke="#081a28"></path><path d="M320 0L328 78.7L394 12.9Z" fill="#112e42" stroke="#112e42"></path><path d="M282 79.7L243 63.9L235 122.7Z" fill="#1d4e6b" stroke="#1d4e6b"></path><path d="M237 510.4L244 527.3L255 507.3Z" fill="#081a28" stroke="#081a28"></path><path d="M252 554.1L244 527.3L186 530.3Z" fill="#081a28" stroke="#081a28"></path><path d="M649 600L662 600L626 536.1Z" fill="#297ea6" stroke="#297ea6"></path><path d="M702 600L739 543.3L700 520.1Z" fill="#1d4e6b" stroke="#1d4e6b"></path><path d="M829 401.6L756 386.7L771 447.6Z" fill="#19435d" stroke="#19435d"></path><path d="M829 401.6L771 447.6L825 433.4Z" fill="#246688" stroke="#246688"></path><path d="M829 401.6L829 383.7L756 386.7Z" fill="#205a7a" stroke="#205a7a"></path><path d="M127 337L159 366.7L189 328.9Z" fill="#1d4e6b" stroke="#1d4e6b"></path><path d="M145 407.6L161 438.6L193 413.7Z" fill="#00101c" stroke="#00101c"></path><path d="M742 109.7L710 39.9L676 77.7Z" fill="#297ea6" stroke="#297ea6"></path><path d="M694 45.7L668 9.9L659 21.9Z" fill="#0c2435" stroke="#0c2435"></path><path d="M797 78.7L710 39.9L742 109.7Z" fill="#277297" stroke="#277297"></path><path d="M186 530.3L244 527.3L237 510.4Z" fill="#1d4e6b" stroke="#1d4e6b"></path><path d="M244 527.3L252 554.1L296 546.1Z" fill="#205a7a" stroke="#205a7a"></path><path d="M161 438.6L208 421.7L193 413.7Z" fill="#15384f" stroke="#15384f"></path><path d="M825 433.4L771 447.6L834 442.4Z" fill="#1d4e6b" stroke="#1d4e6b"></path><path d="M710 39.9L668 9.9L694 45.7Z" fill="#1d4e6b" stroke="#1d4e6b"></path><path d="M659 21.9L661 0L589 0Z" fill="#19435d" stroke="#19435d"></path><path d="M854 240.1L831 222.3L818 262Z" fill="#081a28" stroke="#081a28"></path><path d="M818 262L831 222.3L788 267Z" fill="#0c2435" stroke="#0c2435"></path><path d="M832 201.4L831 222.3L872 193.3Z" fill="#246688" stroke="#246688"></path><path d="M180 141.6L163 199.3L216 161.6Z" fill="#1d4e6b" stroke="#1d4e6b"></path><path d="M216 161.6L163 199.3L201 206.4Z" fill="#246688" stroke="#246688"></path><path d="M98 376.7L145 407.6L159 366.7Z" fill="#0c2435" stroke="#0c2435"></path><path d="M180 141.6L216 161.6L235 122.7Z" fill="#15384f" stroke="#15384f"></path><path d="M667 0L661 0L668 9.9Z" fill="#15384f" stroke="#15384f"></path><path d="M668 9.9L661 0L659 21.9Z" fill="#277297" stroke="#277297"></path><path d="M834 442.4L771 447.6L840 520.1Z" fill="#277297" stroke="#277297"></path><path d="M832 201.4L804 138.4L783 201.4Z" fill="#0c2435" stroke="#0c2435"></path><path d="M271 0L243 63.9L299 42.9Z" fill="#277297" stroke="#277297"></path><path d="M299 42.9L243 63.9L282 79.7Z" fill="#081a28" stroke="#081a28"></path><path d="M831 222.3L832 201.4L783 201.4Z" fill="#081a28" stroke="#081a28"></path><path d="M806 289.1L804 314.9L873 304.9Z" fill="#112e42" stroke="#112e42"></path><path d="M724 0L667 0L668 9.9Z" fill="#00101c" stroke="#00101c"></path><path d="M662 600L702 600L700 520.1Z" fill="#081a28" stroke="#081a28"></path><path d="M840 520.1L771 447.6L745 518.1Z" fill="#19435d" stroke="#19435d"></path><path d="M252 554.1L289 600L296 546.1Z" fill="#19435d" stroke="#19435d"></path><path d="M409 0L320 0L394 12.9Z" fill="#15384f" stroke="#15384f"></path><path d="M205 50.9L180 141.6L235 122.7Z" fill="#246688" stroke="#246688"></path><path d="M145 407.6L193 413.7L171 372.9Z" fill="#0c2435" stroke="#0c2435"></path><path d="M320 0L310 0L299 42.9Z" fill="#297ea6" stroke="#297ea6"></path><path d="M797 78.7L789 97.6L829 105.6Z" fill="#081a28" stroke="#081a28"></path><path d="M804 138.4L789 97.6L742 109.7Z" fill="#277297" stroke="#277297"></path><path d="M710 39.9L724 0L668 9.9Z" fill="#112e42" stroke="#112e42"></path><path d="M840 520.1L745 518.1L840 526.3Z" fill="#081a28" stroke="#081a28"></path><path d="M825 433.4L834 442.4L829 401.6Z" fill="#00101c" stroke="#00101c"></path><path d="M829 401.6L863 362.7L829 383.7Z" fill="#277297" stroke="#277297"></path><path d="M127 337L189 328.9L170 292.1Z" fill="#297ea6" stroke="#297ea6"></path><path d="M159 366.7L145 407.6L171 372.9Z" fill="#00101c" stroke="#00101c"></path><path d="M863 362.7L794 342.9L829 383.7Z" fill="#081a28" stroke="#081a28"></path><path d="M829 105.6L789 97.6L804 138.4Z" fill="#00101c" stroke="#00101c"></path><path d="M129 243.3L211 260L163 199.3Z" fill="#081a28" stroke="#081a28"></path><path d="M129 243.3L129 279L170 292.1Z" fill="#112e42" stroke="#112e42"></path><path d="M129 279L127 337L170 292.1Z" fill="#1d4e6b" stroke="#1d4e6b"></path><path d="M900 373.9L863 362.7L900 403.7Z" fill="#1d4e6b" stroke="#1d4e6b"></path><path d="M124 192.3L129 243.3L163 199.3Z" fill="#0c2435" stroke="#0c2435"></path><path d="M129 279L77 305.9L127 337Z" fill="#246688" stroke="#246688"></path><path d="M199 600L255 600L252 554.1Z" fill="#205a7a" stroke="#205a7a"></path><path d="M252 554.1L255 600L289 600Z" fill="#00101c" stroke="#00101c"></path><path d="M186 530.3L237 510.4L202 491.4Z" fill="#0c2435" stroke="#0c2435"></path><path d="M863 362.7L873 304.9L804 314.9Z" fill="#1d4e6b" stroke="#1d4e6b"></path><path d="M157 136.4L159 137.6L151 118.7Z" fill="#246688" stroke="#246688"></path><path d="M180 141.6L137 172.4L163 199.3Z" fill="#19435d" stroke="#19435d"></path><path d="M159 137.6L180 141.6L151 118.7Z" fill="#246688" stroke="#246688"></path><path d="M702 600L739 600L739 543.3Z" fill="#112e42" stroke="#112e42"></path><path d="M829 105.6L804 138.4L900 148.4Z" fill="#00101c" stroke="#00101c"></path><path d="M789 97.6L797 78.7L742 109.7Z" fill="#081a28" stroke="#081a28"></path><path d="M173 546.3L186 530.3L145 539.1Z" fill="#00101c" stroke="#00101c"></path><path d="M120 492.4L186 530.3L202 491.4Z" fill="#277297" stroke="#277297"></path><path d="M205 50.9L235 122.7L243 63.9Z" fill="#00101c" stroke="#00101c"></path><path d="M159 137.6L137 172.4L180 141.6Z" fill="#1d4e6b" stroke="#1d4e6b"></path><path d="M310 0L271 0L299 42.9Z" fill="#00101c" stroke="#00101c"></path><path d="M157 136.4L137 172.4L159 137.6Z" fill="#19435d" stroke="#19435d"></path><path d="M733 0L724 0L710 39.9Z" fill="#0c2435" stroke="#0c2435"></path><path d="M210 0L205 50.9L243 63.9Z" fill="#246688" stroke="#246688"></path><path d="M101 146.6L137 172.4L157 136.4Z" fill="#277297" stroke="#277297"></path><path d="M101 146.6L124 192.3L137 172.4Z" fill="#1d4e6b" stroke="#1d4e6b"></path><path d="M137 172.4L124 192.3L163 199.3Z" fill="#1d4e6b" stroke="#1d4e6b"></path><path d="M129 243.3L109 248.1L129 279Z" fill="#297ea6" stroke="#297ea6"></path><path d="M789 16.9L733 0L710 39.9Z" fill="#0c2435" stroke="#0c2435"></path><path d="M872 193.3L804 138.4L832 201.4Z" fill="#277297" stroke="#277297"></path><path d="M797 78.7L789 16.9L710 39.9Z" fill="#277297" stroke="#277297"></path><path d="M872 193.3L831 222.3L854 240.1Z" fill="#00101c" stroke="#00101c"></path><path d="M124 192.3L109 248.1L129 243.3Z" fill="#081a28" stroke="#081a28"></path><path d="M900 232.3L872 193.3L854 240.1Z" fill="#0c2435" stroke="#0c2435"></path><path d="M205 50.9L151 118.7L180 141.6Z" fill="#0c2435" stroke="#0c2435"></path><path d="M120 492.4L202 491.4L161 438.6Z" fill="#15384f" stroke="#15384f"></path><path d="M186 530.3L199 600L252 554.1Z" fill="#246688" stroke="#246688"></path><path d="M120 492.4L161 438.6L97 453.4Z" fill="#297ea6" stroke="#297ea6"></path><path d="M840 526.3L745 518.1L739 543.3Z" fill="#277297" stroke="#277297"></path><path d="M900 403.7L863 362.7L829 401.6Z" fill="#246688" stroke="#246688"></path><path d="M863 362.7L900 303L873 304.9Z" fill="#00101c" stroke="#00101c"></path><path d="M73 318.9L98 376.7L127 337Z" fill="#277297" stroke="#277297"></path><path d="M127 337L98 376.7L159 366.7Z" fill="#297ea6" stroke="#297ea6"></path><path d="M900 373.9L900 303L863 362.7Z" fill="#19435d" stroke="#19435d"></path><path d="M873 304.9L900 253.1L854 240.1Z" fill="#00101c" stroke="#00101c"></path><path d="M840 520.1L849 509.3L834 442.4Z" fill="#00101c" stroke="#00101c"></path><path d="M791 600L840 526.3L739 543.3Z" fill="#1d4e6b" stroke="#1d4e6b"></path><path d="M840 520.1L840 526.3L849 509.3Z" fill="#15384f" stroke="#15384f"></path><path d="M900 303L900 253.1L873 304.9Z" fill="#19435d" stroke="#19435d"></path><path d="M900 403.7L829 401.6L834 442.4Z" fill="#081a28" stroke="#081a28"></path><path d="M900 253.1L900 232.3L854 240.1Z" fill="#277297" stroke="#277297"></path><path d="M857 68.9L834 71.7L829 105.6Z" fill="#19435d" stroke="#19435d"></path><path d="M857 68.9L829 105.6L891 115.6Z" fill="#297ea6" stroke="#297ea6"></path><path d="M829 105.6L834 71.7L797 78.7Z" fill="#081a28" stroke="#081a28"></path><path d="M739 600L791 600L739 543.3Z" fill="#246688" stroke="#246688"></path><path d="M816 40.9L789 16.9L797 78.7Z" fill="#19435d" stroke="#19435d"></path><path d="M900 442.6L900 403.7L834 442.4Z" fill="#1d4e6b" stroke="#1d4e6b"></path><path d="M173 546.3L199 600L186 530.3Z" fill="#297ea6" stroke="#297ea6"></path><path d="M97 453.4L161 438.6L145 407.6Z" fill="#277297" stroke="#277297"></path><path d="M173 546.3L171 600L199 600Z" fill="#081a28" stroke="#081a28"></path><path d="M834 71.7L816 40.9L797 78.7Z" fill="#15384f" stroke="#15384f"></path><path d="M35 289.1L77 305.9L109 248.1Z" fill="#246688" stroke="#246688"></path><path d="M109 248.1L77 305.9L129 279Z" fill="#0c2435" stroke="#0c2435"></path><path d="M71 400.7L97 453.4L145 407.6Z" fill="#19435d" stroke="#19435d"></path><path d="M63 180.4L109 248.1L124 192.3Z" fill="#0c2435" stroke="#0c2435"></path><path d="M120 492.4L145 539.1L186 530.3Z" fill="#00101c" stroke="#00101c"></path><path d="M271 0L210 0L243 63.9Z" fill="#0c2435" stroke="#0c2435"></path><path d="M104 46.7L96 110.7L151 118.7Z" fill="#112e42" stroke="#112e42"></path><path d="M77 305.9L73 318.9L127 337Z" fill="#081a28" stroke="#081a28"></path><path d="M71 400.7L145 407.6L98 376.7Z" fill="#00101c" stroke="#00101c"></path><path d="M171 600L173 546.3L139 587.1Z" fill="#277297" stroke="#277297"></path><path d="M900 492.4L834 442.4L849 509.3Z" fill="#246688" stroke="#246688"></path><path d="M900 492.4L900 442.6L834 442.4Z" fill="#081a28" stroke="#081a28"></path><path d="M900 492.4L849 509.3L900 499.3Z" fill="#081a28" stroke="#081a28"></path><path d="M210 0L203 0L205 50.9Z" fill="#1d4e6b" stroke="#1d4e6b"></path><path d="M96 110.7L101 146.6L151 118.7Z" fill="#277297" stroke="#277297"></path><path d="M151 118.7L101 146.6L157 136.4Z" fill="#00101c" stroke="#00101c"></path><path d="M77 305.9L35 289.1L73 318.9Z" fill="#19435d" stroke="#19435d"></path><path d="M820 0L791 0L789 16.9Z" fill="#112e42" stroke="#112e42"></path><path d="M789 16.9L791 0L733 0Z" fill="#15384f" stroke="#15384f"></path><path d="M900 148.4L804 138.4L872 193.3Z" fill="#277297" stroke="#277297"></path><path d="M834 71.7L857 68.9L816 40.9Z" fill="#297ea6" stroke="#297ea6"></path><path d="M816 40.9L820 0L789 16.9Z" fill="#1d4e6b" stroke="#1d4e6b"></path><path d="M73 318.9L71 400.7L98 376.7Z" fill="#297ea6" stroke="#297ea6"></path><path d="M900 232.3L900 148.4L872 193.3Z" fill="#246688" stroke="#246688"></path><path d="M900 148.4L900 147.6L829 105.6Z" fill="#277297" stroke="#277297"></path><path d="M152 600L171 600L139 587.1Z" fill="#081a28" stroke="#081a28"></path><path d="M99 518.3L145 539.1L120 492.4Z" fill="#081a28" stroke="#081a28"></path><path d="M900 147.6L891 115.6L829 105.6Z" fill="#205a7a" stroke="#205a7a"></path><path d="M900 499.3L849 509.3L900 526.1Z" fill="#277297" stroke="#277297"></path><path d="M791 600L834 600L840 526.3Z" fill="#081a28" stroke="#081a28"></path><path d="M900 526.1L849 509.3L840 526.3Z" fill="#246688" stroke="#246688"></path><path d="M104 46.7L151 118.7L205 50.9Z" fill="#297ea6" stroke="#297ea6"></path><path d="M101 146.6L63 180.4L124 192.3Z" fill="#277297" stroke="#277297"></path><path d="M41 460.4L99 518.3L97 453.4Z" fill="#0c2435" stroke="#0c2435"></path><path d="M97 453.4L99 518.3L120 492.4Z" fill="#277297" stroke="#277297"></path><path d="M900 0L820 0L857 68.9Z" fill="#297ea6" stroke="#297ea6"></path><path d="M857 68.9L820 0L816 40.9Z" fill="#1d4e6b" stroke="#1d4e6b"></path><path d="M139 587.1L173 546.3L145 539.1Z" fill="#15384f" stroke="#15384f"></path><path d="M0 363.7L57 413.6L71 400.7Z" fill="#081a28" stroke="#081a28"></path><path d="M71 400.7L57 413.6L97 453.4Z" fill="#205a7a" stroke="#205a7a"></path><path d="M29 318L71 400.7L73 318.9Z" fill="#277297" stroke="#277297"></path><path d="M203 0L168 0L205 50.9Z" fill="#0c2435" stroke="#0c2435"></path><path d="M67 114.6L63 180.4L101 146.6Z" fill="#297ea6" stroke="#297ea6"></path><path d="M900 147.6L900 107.7L891 115.6Z" fill="#246688" stroke="#246688"></path><path d="M891 115.6L900 107.7L857 68.9Z" fill="#112e42" stroke="#112e42"></path><path d="M99 518.3L139 587.1L145 539.1Z" fill="#081a28" stroke="#081a28"></path><path d="M880 560.1L900 526.1L840 526.3Z" fill="#1d4e6b" stroke="#1d4e6b"></path><path d="M834 600L880 560.1L840 526.3Z" fill="#297ea6" stroke="#297ea6"></path><path d="M12 234.3L35 289.1L109 248.1Z" fill="#205a7a" stroke="#205a7a"></path><path d="M67 114.6L50 182.4L63 180.4Z" fill="#277297" stroke="#277297"></path><path d="M63 180.4L50 182.4L109 248.1Z" fill="#297ea6" stroke="#297ea6"></path><path d="M104 46.7L79 101.7L96 110.7Z" fill="#1d4e6b" stroke="#1d4e6b"></path><path d="M96 110.7L67 114.6L101 146.6Z" fill="#0c2435" stroke="#0c2435"></path><path d="M35 289.1L29 318L73 318.9Z" fill="#277297" stroke="#277297"></path><path d="M0 322.9L29 318L0 294Z" fill="#205a7a" stroke="#205a7a"></path><path d="M79 101.7L67 114.6L96 110.7Z" fill="#112e42" stroke="#112e42"></path><path d="M0 114.6L67 114.6L0 80.9Z" fill="#0c2435" stroke="#0c2435"></path><path d="M168 0L104 46.7L205 50.9Z" fill="#112e42" stroke="#112e42"></path><path d="M900 107.7L900 57.9L857 68.9Z" fill="#081a28" stroke="#081a28"></path><path d="M57 413.6L41 460.4L97 453.4Z" fill="#112e42" stroke="#112e42"></path><path d="M99 518.3L71 596.1L139 587.1Z" fill="#15384f" stroke="#15384f"></path><path d="M36 453.6L41 460.4L57 413.6Z" fill="#00101c" stroke="#00101c"></path><path d="M0 394.6L36 453.6L57 413.6Z" fill="#00101c" stroke="#00101c"></path><path d="M168 0L109 15.9L104 46.7Z" fill="#297ea6" stroke="#297ea6"></path><path d="M104 46.7L86 19.9L79 101.7Z" fill="#081a28" stroke="#081a28"></path><path d="M0 454.4L57 526.3L41 460.4Z" fill="#297ea6" stroke="#297ea6"></path><path d="M41 460.4L57 526.3L99 518.3Z" fill="#297ea6" stroke="#297ea6"></path><path d="M139 587.1L71 596.1L152 600Z" fill="#19435d" stroke="#19435d"></path><path d="M0 205.3L50 182.4L0 132.4Z" fill="#19435d" stroke="#19435d"></path><path d="M0 205.3L12 234.3L50 182.4Z" fill="#0c2435" stroke="#0c2435"></path><path d="M50 182.4L12 234.3L109 248.1Z" fill="#0c2435" stroke="#0c2435"></path><path d="M29 318L0 363.7L71 400.7Z" fill="#00101c" stroke="#00101c"></path><path d="M0 294L29 318L35 289.1Z" fill="#19435d" stroke="#19435d"></path><path d="M0 290.1L0 294L35 289.1Z" fill="#081a28" stroke="#081a28"></path><path d="M12 234.3L0 290.1L35 289.1Z" fill="#00101c" stroke="#00101c"></path><path d="M834 600L900 600L880 560.1Z" fill="#0c2435" stroke="#0c2435"></path><path d="M880 560.1L900 600L900 526.1Z" fill="#1d4e6b" stroke="#1d4e6b"></path><path d="M0 322.9L0 363.7L29 318Z" fill="#00101c" stroke="#00101c"></path><path d="M0 551.3L50 559.1L57 526.3Z" fill="#277297" stroke="#277297"></path><path d="M90 0L86 19.9L109 15.9Z" fill="#246688" stroke="#246688"></path><path d="M109 15.9L86 19.9L104 46.7Z" fill="#246688" stroke="#246688"></path><path d="M0 363.7L0 394.6L57 413.6Z" fill="#19435d" stroke="#19435d"></path><path d="M0 132.4L50 182.4L67 114.6Z" fill="#246688" stroke="#246688"></path><path d="M12 234.3L0 205.3L0 290.1Z" fill="#0c2435" stroke="#0c2435"></path><path d="M900 57.9L900 0L857 68.9Z" fill="#081a28" stroke="#081a28"></path><path d="M168 0L90 0L109 15.9Z" fill="#1d4e6b" stroke="#1d4e6b"></path><path d="M0 114.6L0 132.4L67 114.6Z" fill="#205a7a" stroke="#205a7a"></path><path d="M0 454.4L41 460.4L36 453.6Z" fill="#19435d" stroke="#19435d"></path><path d="M57 526.3L50 559.1L99 518.3Z" fill="#15384f" stroke="#15384f"></path><path d="M50 559.1L71 596.1L99 518.3Z" fill="#112e42" stroke="#112e42"></path><path d="M0 394.6L0 454.4L36 453.6Z" fill="#246688" stroke="#246688"></path><path d="M41 600L62 600L50 559.1Z" fill="#19435d" stroke="#19435d"></path><path d="M50 559.1L62 600L71 596.1Z" fill="#277297" stroke="#277297"></path><path d="M71 596.1L62 600L152 600Z" fill="#00101c" stroke="#00101c"></path><path d="M67 114.6L79 101.7L0 80.9Z" fill="#00101c" stroke="#00101c"></path><path d="M49 6.9L79 101.7L86 19.9Z" fill="#112e42" stroke="#112e42"></path><path d="M0 566.1L41 600L50 559.1Z" fill="#0c2435" stroke="#0c2435"></path><path d="M90 0L49 6.9L86 19.9Z" fill="#112e42" stroke="#112e42"></path><path d="M0 69.7L0 80.9L79 101.7Z" fill="#112e42" stroke="#112e42"></path><path d="M49 6.9L0 69.7L79 101.7Z" fill="#00101c" stroke="#00101c"></path><path d="M0 454.4L0 551.3L57 526.3Z" fill="#246688" stroke="#246688"></path><path d="M0 551.3L0 566.1L50 559.1Z" fill="#15384f" stroke="#15384f"></path><path d="M0 566.1L0 600L41 600Z" fill="#297ea6" stroke="#297ea6"></path><path d="M90 0L5 0L49 6.9Z" fill="#19435d" stroke="#19435d"></path><path d="M49 6.9L5 0L0 69.7Z" fill="#297ea6" stroke="#297ea6"></path><path d="M5 0L0 0L0 69.7Z" fill="#297ea6" stroke="#297ea6"></path></g></svg>